<svg width="31" height="44" viewBox="0 0 31 44" fill="none" xmlns="http://www.w3.org/2000/svg">
<path d="M30.731 17.2212C30.731 15.7081 27.5136 10.7878 20.6054 11.352V15.989C20.6054 16.5189 21.8041 18.1024 22.4034 18.8279C22.4981 22.9918 22.6306 31.5465 22.4034 32.4549C22.1195 33.5905 21.4571 33.5905 21.0786 33.7798C20.7758 33.9312 15.2114 33.8429 12.467 33.7798C12.3408 34.4738 12.1642 36.2781 12.467 37.9436C12.7698 39.6091 14.8644 40.0255 15.8738 40.0255C17.1987 42.1109 20.3215 44 21.6463 44H28.6491C27.5136 42.4895 25.6499 39.6505 27.3242 38.606C30.3525 36.7169 30.5417 34.2529 30.731 33.1174C30.9202 31.9818 30.731 23.6624 30.731 17.2212Z" fill="#225479"/>
<path d="M18.5242 13.0592V17.6016H9.53417C8.96637 17.6016 8.39858 18.1694 8.39858 19.3996C8.43013 23.658 8.47429 32.2884 8.39858 32.7427C8.30395 33.3105 9.91269 34.7299 10.2912 35.2977V40.0293C1.39582 40.2186 0.165606 33.7836 0.0709739 32.9319C-0.023658 32.0803 -0.023658 24.4151 0.0709739 18.1694C0.146679 13.1728 5.52808 11.6082 8.20932 11.4505H16.8208C17.805 11.4505 18.3665 12.523 18.5242 13.0592Z" fill="#2D9D5A"/>
<rect x="19.5612" width="3.02822" height="2.83896" fill="#2D9D5A"/>
<rect x="22.7804" y="4.16355" width="2.27117" height="2.27117" fill="#225479"/>
<rect x="18.9915" y="7.00318" width="1.51411" height="1.51411" fill="#225479"/>
</svg>
